<svg xmlns="http://www.w3.org/2000/svg" viewBox="0 0 320 512">
  <!-- Gradient Definition -->
  <defs>
    <linearGradient id="grad1" x1="100%" y1="10%" x2="10%" y2="10%">
      <stop offset="0%" style="stop-color:#000;stop-opacity:1" />
      <stop offset="100%" style="stop-color:#0f3c58;stop-opacity:1" />
    </linearGradient>
  </defs>

  <!-- Path with Gradient Fill and White Outline -->
  <path fill="url(#grad1)" stroke="white" stroke-width="4" d="M128 0C110.3 0 96 14.3 96 32c0 16.1 11.9 29.4 27.4 31.7C78.4 106.8 8 190 8 288c0 47.4 30.8 72.3 56 84.7L64 400l192 0 0-27.3c25.2-12.5 56-37.4 56-84.7c0-37.3-10.2-72.4-25.3-104.1l-99.4 99.4c-6.2 6.2-16.4 6.2-22.6 0s-6.2-16.4 0-22.6L270.8 154.6c-23.2-38.1-51.8-69.5-74.2-90.9C212.1 61.4 224 48.1 224 32c0-17.7-14.3-32-32-32L128 0zM48 432L6.6 473.4c-4.2 4.2-6.6 10-6.6 16C0 501.9 10.1 512 22.6 512l274.7 0c12.5 0 22.6-10.1 22.6-22.6c0-6-2.4-11.8-6.6-16L272 432 48 432z"/>
</svg>
